[Header]
FileType HTR
DataType HTRS
FileVersion 1
NumSegments 64
NumFrames 3
DataFrameRate 24
EulerRotationOrder ZYX
CalibrationUnits mm
RotationUnits Degrees
GlobalAxisofGravity Y
BoneLengthAxis Y
ScaleFactor 1.0
[SegmentNames&Hierarchy]
Hips	GLOBAL
Spine	Hips
Spine1	Spine
Spine2	Spine1
Neck	Spine2
Head	Neck
LeftEye	Head
RightEye	Head
LeftShoulder	Spine2
LeftArm	LeftShoulder
LeftForeArm	LeftArm
LeftHand	LeftForeArm
LeftHandThumb1	LeftHand
LeftHandThumb2	LeftHandThumb1
LeftHandThumb3	LeftHandThumb2
LeftHandThumb4	LeftHandThumb3
LeftHandIndex1	LeftHand
LeftHandIndex2	LeftHandIndex1
LeftHandIndex3	LeftHandIndex2
LeftHandIndex4	LeftHandIndex3
LeftHandMiddle1	LeftHand
LeftHandMiddle2	LeftHandMiddle1
LeftHandMiddle3	LeftHandMiddle2
LeftHandMiddle4	LeftHandMiddle3
LeftHandRing1	LeftHand
LeftHandRing2	LeftHandRing1
LeftHandRing3	LeftHandRing2
LeftHandRing4	LeftHandRing3
LeftHandPinky1	LeftHand
LeftHandPinky2	LeftHandPinky1
LeftHandPinky3	LeftHandPinky2
LeftHandPinky4	LeftHandPinky3
RightShoulder	Spine2
RightArm	RightShoulder
RightForeArm	RightArm
RightHand	RightForeArm
RightHandPinky1	RightHand
RightHandPinky2	RightHandPinky1
RightHandPinky3	RightHandPinky2
RightHandPinky4	RightHandPinky3
RightHandRing1	RightHand
RightHandRing2	RightHandRing1
RightHandRing3	RightHandRing2
RightHandRing4	RightHandRing3
RightHandMiddle1	RightHand
RightHandMiddle2	RightHandMiddle1
RightHandMiddle3	RightHandMiddle2
RightHandMiddle4	RightHandMiddle3
RightHandIndex1	RightHand
RightHandIndex2	RightHandIndex1
RightHandIndex3	RightHandIndex2
RightHandIndex4	RightHandIndex3
RightHandThumb1	RightHand
RightHandThumb2	RightHandThumb1
RightHandThumb3	RightHandThumb2
RightHandThumb4	RightHandThumb3
LeftUpLeg	Hips
LeftLeg	LeftUpLeg
LeftFoot	LeftLeg
LeftToeBase	LeftFoot
RightUpLeg	Hips
RightLeg	RightUpLeg
RightFoot	RightLeg
RightToeBase	RightFoot
[BasePosition]
Hips	0	0	0	0	0	0	1
Spine	0	0	0	0	0	0	1
Spine1	0	0	0	0	0	0	1
Spine2	0	0	0	0	0	0	1
Neck	0	0	0	0	0	0	1
Head	0	0	0	0	0	0	1
LeftEye	0	0	0	0	0	0	1
RightEye	0	0	0	0	0	0	1
LeftShoulder	0	0	0	0	0	0	1
LeftArm	0	0	0	0	0	0	1
LeftForeArm	0	0	0	0	0	0	1
LeftHand	0	0	0	0	0	0	1
LeftHandThumb1	0	0	0	0	0	0	1
LeftHandThumb2	0	0	0	0	0	0	1
LeftHandThumb3	0	0	0	0	0	0	1
LeftHandThumb4	0	0	0	0	0	0	1
LeftHandIndex1	0	0	0	0	0	0	1
LeftHandIndex2	0	0	0	0	0	0	1
LeftHandIndex3	0	0	0	0	0	0	1
LeftHandIndex4	0	0	0	0	0	0	1
LeftHandMiddle1	0	0	0	0	0	0	1
LeftHandMiddle2	0	0	0	0	0	0	1
LeftHandMiddle3	0	0	0	0	0	0	1
LeftHandMiddle4	0	0	0	0	0	0	1
LeftHandRing1	0	0	0	0	0	0	1
LeftHandRing2	0	0	0	0	0	0	1
LeftHandRing3	0	0	0	0	0	0	1
LeftHandRing4	0	0	0	0	0	0	1
LeftHandPinky1	0	0	0	0	0	0	1
LeftHandPinky2	0	0	0	0	0	0	1
LeftHandPinky3	0	0	0	0	0	0	1
LeftHandPinky4	0	0	0	0	0	0	1
RightShoulder	0	0	0	0	0	0	1
RightArm	0	0	0	0	0	0	1
RightForeArm	0	0	0	0	0	0	1
RightHand	0	0	0	0	0	0	1
RightHandPinky1	0	0	0	0	0	0	1
RightHandPinky2	0	0	0	0	0	0	1
RightHandPinky3	0	0	0	0	0	0	1
RightHandPinky4	0	0	0	0	0	0	1
RightHandRing1	0	0	0	0	0	0	1
RightHandRing2	0	0	0	0	0	0	1
RightHandRing3	0	0	0	0	0	0	1
RightHandRing4	0	0	0	0	0	0	1
RightHandMiddle1	0	0	0	0	0	0	1
RightHandMiddle2	0	0	0	0	0	0	1
RightHandMiddle3	0	0	0	0	0	0	1
RightHandMiddle4	0	0	0	0	0	0	1
RightHandIndex1	0	0	0	0	0	0	1
RightHandIndex2	0	0	0	0	0	0	1
RightHandIndex3	0	0	0	0	0	0	1
RightHandIndex4	0	0	0	0	0	0	1
RightHandThumb1	0	0	0	0	0	0	1
RightHandThumb2	0	0	0	0	0	0	1
RightHandThumb3	0	0	0	0	0	0	1
RightHandThumb4	0	0	0	0	0	0	1
LeftUpLeg	0	0	0	0	0	0	1
LeftLeg	0	0	0	0	0	0	1
LeftFoot	0	0	0	0	0	0	1
LeftToeBase	0	0	0	0	0	0	1
RightUpLeg	0	0	0	0	0	0	1
RightLeg	0	0	0	0	0	0	1
RightFoot	0	0	0	0	0	0	1
RightToeBase	0	0	0	0	0	0	1
[Hips]
6	53.41072464	898.4074707	-27.33757019	16.97574043	7.024585724	1.911817789	1.0
7	69.47829437	818.8231201	-50.24661636	24.2012825	8.805809975	5.568259716	1.0
8	80.96866608	756.6889038	-67.93775177	30.14699364	9.268101692	8.825716019	1.0
[Spine]
6	0	101.8159943	1.315000057	4.407614231	-1.028573871	-1.669535995	1.0
7	0	101.8159943	1.315000057	5.60693264	-1.061238766	-2.510345459	1.0
8	0	101.8159943	1.315000057	8.170815468	-0.928966403	-3.368862629	1.0
[Spine1]
6	0	100.8349991	-10.00800037	1.65917027	-0.4470334947	3.346741199	1.0
7	0	100.8349991	-10.00800037	2.176680326	-0.6251341701	2.668674231	1.0
8	0	100.8349991	-10.00800037	2.882839203	-0.7257807851	2.166367769	1.0
[Spine2]
6	0	91	-13.73399925	1.638082385	-0.0578562282	3.301638126	1.0
7	0	91	-13.73399925	2.143483162	-0.2733359039	2.635278463	1.0
8	0	91	-13.73399925	2.84073019	-0.3970732391	2.14339447	1.0
[Neck]
6	0	166.7169952	-25.16200066	-6.317252159	-1.132357121	-2.421065569	1.0
7	0	166.7169952	-25.16200066	-11.13105011	-1.514187098	-3.110423803	1.0
8	0	166.7169952	-25.16200066	-15.5301342	-1.902944684	-3.23882246	1.0
[Head]
6	0	96.17900085	16.84999847	-21.85588074	-4.965510845	-6.66877079	1.0
7	0	96.17900085	16.84999847	-29.93110847	-7.426903248	-6.57218504	1.0
8	0	96.17900085	16.84999847	-38.76187134	-9.689357758	-6.578265667	1.0
[LeftEye]
6	30.6760006	64.09500122	92.83599854	0	0	0	1.0
7	30.6760006	64.09500122	92.83599854	0	0	0	1.0
8	30.6760006	64.09500122	92.83599854	0	0	0	1.0
[RightEye]
6	-30.6760006	64.09500122	92.83499908	0	0	0	1.0
7	-30.6760006	64.09500122	92.83499908	0	0	0	1.0
8	-30.6760006	64.09500122	92.83499908	0	0	0	1.0
[LeftShoulder]
6	45.70400238	109.4599991	-26.28000069	2.015899658	-17.79721069	4.94829607	1.0
7	45.70400238	109.4599991	-26.28000069	1.699364066	-18.64700699	5.085577488	1.0
8	45.70400238	109.4599991	-26.28000069	3.002381802	-16.16519737	0.9641790986	1.0
[LeftArm]
6	105.923996	-5.24600029	-22.32099915	-38.37202835	49.20585632	-96.85587311	1.0
7	105.923996	-5.24600029	-22.32099915	-34.4144516	39.57279587	-89.87941742	1.0
8	105.923996	-5.24600029	-22.32099915	-17.15621567	15.31909466	-69.66500854	1.0
[LeftForeArm]
6	278.414978	-0.0009999999311	0	7.036281659e-06	-72.88755035	-0.0002332749282	1.0
7	278.414978	-0.0009999999311	0	-1.878155126e-05	-61.13972473	-0.0001912153239	1.0
8	278.414978	-0.0009999999311	0	2.551177204e-05	-40.44680023	-0.0002340439969	1.0
[LeftHand]
6	283.2879944	0	0	-28.84458542	-3.250935793	29.50208473	1.0
7	283.2879944	0	0	-27.7939682	9.577611923	21.45649719	1.0
8	283.2879944	0	0	-27.99894333	16.841259	13.09638119	1.0
[LeftHandThumb1]
6	24.6609993	-15.75	26.8239994	12.39914513	-11.83802032	9.406960487	1.0
7	24.6609993	-15.75	26.8239994	11.20010281	-13.49556828	9.36093998	1.0
8	24.6609993	-15.75	26.8239994	13.51288795	-10.27080536	9.484065056	1.0
[LeftHandThumb2]
6	32.29800034	-18.64699936	18.64699936	-6.51384449	14.65680504	-5.681519508	1.0
7	32.29800034	-18.64699936	18.64699936	-7.589363098	10.87968826	-5.992871761	1.0
8	32.29800034	-18.64699936	18.64699936	-5.461569786	18.20942116	-5.314438343	1.0
[LeftHandThumb3]
6	26.52600098	-15.31499958	15.31499958	0.2450511009	2.129528761	-1.681179523	1.0
7	26.52600098	-15.31499958	15.31499958	-0.1091305688	0.6354497075	-1.995270371	1.0
8	26.52600098	-15.31499958	15.31499958	0.586643517	3.535317421	-1.376452565	1.0
[LeftHandThumb4]
6	19.54599953	-11.28499985	11.28499985	0	0	0	1.0
7	19.54599953	-11.28499985	11.28499985	0	0	0	1.0
8	19.54599953	-11.28499985	11.28499985	0	0	0	1.0
[LeftHandIndex1]
6	91.09299469	-5.170999527	22.60099792	1.327881694	-7.167791843	11.78424931	1.0
7	91.09299469	-5.170999527	22.60099792	1.292766929	-9.014371872	10.36588764	1.0
8	91.09299469	-5.170999527	22.60099792	0.7542454004	-4.317445278	3.539768934	1.0
[LeftHandIndex2]
6	36.76399994	0	0	0.01815812476	0.7735276222	-0.0001111582242	1.0
7	36.76399994	0	0	0.003379807342	0.8922462463	-1.003777742	1.0
8	36.76399994	0	0	-0.156869173	1.618062854	-8.309427261	1.0
[LeftHandIndex3]
6	28.83100128	0	0	-0.1182281002	-1.275865436	10.63764954	1.0
7	28.83100128	0	0	-0.09741301835	-1.158393264	9.451213837	1.0
8	28.83100128	0	0	-0.02298618481	-0.4214477241	2.08171916	1.0
[LeftHandIndex4]
6	23.92700005	0	0	0	0	0	1.0
7	23.92700005	0	0	0	0	0	1.0
8	23.92700005	0	0	0	0	0	1.0
[LeftHandMiddle1]
6	95.33399963	0	0	0.6830362678	2.827724934	4.671337128	1.0
7	95.33399963	0	0	0.5818962455	2.389007092	3.427040339	1.0
8	95.33399963	0	0	-0.1274864674	4.680736065	-3.779917717	1.0
[LeftHandMiddle2]
6	36.98199844	0	0	-0.3047612607	2.044334173	-12.52386761	1.0
7	36.98199844	0	0	-0.3506219089	2.155764818	-13.71290398	1.0
8	36.98199844	0	0	-0.686522007	2.824525595	-21.10596466	1.0
[LeftHandMiddle3]
6	29.50900078	0	0	-0.04233618453	-0.5720006227	8.546207428	1.0
7	29.50900078	0	0	-0.02826814353	-0.4547486901	7.359968662	1.0
8	29.50900078	0	0	0.004560865927	0.2777093351	-0.009163412265	1.0
[LeftHandMiddle4]
6	28.3390007	0	0	0	0	0	1.0
7	28.3390007	0	0	0	0	0	1.0
8	28.3390007	0	0	0	0	0	1.0
[LeftHandRing1]
6	91.04499817	-0.4390000105	-18.65100098	-0.5989986658	13.74778461	-5.506188869	1.0
7	91.04499817	-0.4390000105	-18.65100098	-0.748078227	14.50033665	-6.668053627	1.0
8	91.04499817	-0.4390000105	-18.65100098	-1.567193747	13.69883442	-14.31387138	1.0
[LeftHandRing2]
6	31.54000092	0	0	-0.2425245792	2.224344492	-19.22485352	1.0
7	31.54000092	0	0	-0.2781684399	2.336513519	-20.41236305	1.0
8	31.54000092	0	0	-0.552759409	3.018182993	-27.8354454	1.0
[LeftHandRing3]
6	29.37700081	0	0	0.02609899454	-0.15428029	1.473485231	1.0
7	29.37700081	0	0	0.03951790184	-0.03691136092	0.2874066532	1.0
8	29.37700081	0	0	0.06824278086	0.6959619522	-7.081319809	1.0
[LeftHandRing4]
6	26.47500038	0	0	0	0	0	1.0
7	26.47500038	0	0	0	0	0	1.0
8	26.47500038	0	0	0	0	0	1.0
[LeftHandPinky1]
6	80.77799988	-4.887000084	-38.06099701	-1.604202151	24.60368919	-14.88219833	1.0
7	80.77799988	-4.887000084	-38.06099701	-1.813297153	26.24033546	-16.04362679	1.0
8	80.77799988	-4.887000084	-38.06099701	-3.15134263	23.05443382	-24.07058525	1.0
[LeftHandPinky2]
6	36	0	0	-0.6406568289	2.158714056	-24.40042877	1.0
7	36	0	0	-0.6970650554	2.264190912	-25.5972271	1.0
8	36	0	0	-1.101063728	2.898022175	-33.12701035	1.0
[LeftHandPinky3]
6	21.14200211	0	0	-0.005435276777	0.8285486102	0.2979780734	1.0
7	21.14200211	0	0	-0.01621403545	0.9470526576	-0.8881991506	1.0
8	21.14200211	0	0	-0.137775138	1.675749183	-8.259357452	1.0
[LeftHandPinky4]
6	19.75699997	0	0	0	0	0	1.0
7	19.75699997	0	0	0	0	0	1.0
8	19.75699997	0	0	0	0	0	1.0
[RightShoulder]
6	-45.70000076	109.4620056	-26.28000069	4.66577673	2.768612623	-0.1487198174	1.0
7	-45.70000076	109.4620056	-26.28000069	4.558658123	0.4397903979	-1.215054512	1.0
8	-45.70000076	109.4620056	-26.28000069	4.47351265	-1.478773475	3.130351305	1.0
[RightArm]
6	-105.9280014	-5.248000145	-22.32099915	-1.083170652	-38.55913544	57.18843842	1.0
7	-105.9280014	-5.248000145	-22.32099915	-6.388186932	-33.82131958	62.48916245	1.0
8	-105.9280014	-5.248000145	-22.32099915	-3.86388731	-9.760041237	59.41376114	1.0
[RightForeArm]
6	-278.414978	0	0	5.448926822e-05	75.53767395	6.070938252e-05	1.0
7	-278.414978	0	0	-2.348286216e-06	65.24134064	-3.857630418e-06	1.0
8	-278.414978	0	0	-2.289892655e-05	43.08211517	-2.836646854e-05	1.0
[RightHand]
6	-283.2879944	0	0.0009999999311	17.88422585	-16.36124611	-33.708004	1.0
7	-283.2879944	0	0.0009999999311	12.64047432	-16.6392498	-37.28158951	1.0
8	-283.2879944	0	0.0009999999311	0.2838465571	-11.28556442	-35.28993225	1.0
[RightHandPinky1]
6	-80.76699829	-4.885000229	-38.06000137	-1.53935039	-25.12863922	14.36779022	1.0
7	-80.76699829	-4.885000229	-38.06000137	-1.778113127	-26.33726501	15.83829784	1.0
8	-80.76699829	-4.885000229	-38.06000137	-3.018172979	-23.4950428	23.21605873	1.0
[RightHandPinky2]
6	-36	0	0.0009999999311	-0.6187545657	-2.115879774	23.93810844	1.0
7	-36	0	0.0009999999311	-0.6875109076	-2.246285915	25.41348839	1.0
8	-36	0	0.0009999999311	-1.052288532	-2.830158949	32.31007767	1.0
[RightHandPinky3]
6	-21.14200211	0	0	-0.1669380218	2.088242531	0.8815740347	1.0
7	-21.14200211	0	0	-0.1834322363	1.943593144	2.33223176	1.0
8	-21.14200211	0	0	-0.3080016971	1.278374314	9.079045296	1.0
[RightHandPinky4]
6	-19.75699997	0	0	0	0	0	1.0
7	-19.75699997	0	0	0	0	0	1.0
8	-19.75699997	0	0	0	0	0	1.0
[RightHandRing1]
6	-91.03599548	-0.4390000105	-18.65100098	-0.557031095	-13.92849827	5.030983448	1.0
7	-91.03599548	-0.4390000105	-18.65100098	-0.7292909622	-14.52476215	6.47949028	1.0
8	-91.03599548	-0.4390000105	-18.65100098	-1.475897789	-13.82512188	13.48634815	1.0
[RightHandRing2]
6	-31.54000092	0	0	-0.2296016514	-2.181458712	18.77563286	1.0
7	-31.54000092	0	0	-0.2725201845	-2.319161654	20.23103905	1.0
8	-31.54000092	0	0	-0.5186670423	-2.945741177	27.03073883	1.0
[RightHandRing3]
6	-29.37700081	0	0	-0.08151037991	2.193670511	-3.438714743	1.0
7	-29.37700081	0	0	-0.0604923889	2.050678253	-1.986671448	1.0
8	-29.37700081	0	0	-0.01064285543	1.38063693	4.765623093	1.0
[RightHandRing4]
6	-26.47500038	0	0	0	0	0	1.0
7	-26.47500038	0	0	0	0	0	1.0
8	-26.47500038	0	0	0	0	0	1.0
[RightHandMiddle1]
6	-95.32500458	0	0	0.7225714326	-2.549030781	-5.089150906	1.0
7	-95.32500458	0	0	0.5982496738	-2.32549572	-3.601389885	1.0
8	-95.32500458	0	0	-0.04639799893	-4.40708828	2.99876523	1.0
[RightHandMiddle2]
6	-36.98199844	0	0	-0.2881184816	-2.002075672	12.07732773	1.0
7	-36.98199844	0	0	-0.3434810042	-2.138719797	13.53234768	1.0
8	-36.98199844	0	0	-0.645945847	-2.753964901	20.3047924	1.0
[RightHandMiddle3]
6	-29.50900078	0	0	-0.01972491667	0.4124423862	-5.358906269	1.0
7	-29.50900078	0	0	-0.01084396988	0.2682399452	-3.907514095	1.0
8	-29.50900078	0	0	-0.01759820245	-0.4034185112	2.843510866	1.0
[RightHandMiddle4]
6	-28.3390007	0	0.0009999999311	0	0	0	1.0
7	-28.3390007	0	0.0009999999311	0	0	0	1.0
8	-28.3390007	0	0.0009999999311	0	0	0	1.0
[RightHandIndex1]
6	-91.08300018	-5.167999744	22.60099792	1.370634675	7.928486347	-12.13596249	1.0
7	-91.08300018	-5.167999744	22.60099792	1.305363536	9.173021317	-10.52780628	1.0
8	-91.08300018	-5.167999744	22.60099792	0.8149547577	4.897789955	-4.273352623	1.0
[RightHandIndex2]
6	-36.76399994	0	0	0.01834306493	-0.7404176593	0.0001153262492	1.0
7	-36.76399994	0	0	0.005122404546	-0.8808360696	0.8905285001	1.0
8	-36.76399994	0	0	-0.1346982867	-1.539136529	7.50501442	1.0
[RightHandIndex3]
6	-28.83100128	0	0	-0.1191640869	1.964361429	-7.407226563	1.0
7	-28.83100128	0	0	-0.1021928564	1.81939137	-5.955441952	1.0
8	-28.83100128	0	0	-0.07163833827	1.141545057	0.7957490087	1.0
[RightHandIndex4]
6	-23.92700005	0	0	0	0	0	1.0
7	-23.92700005	0	0	0	0	0	1.0
8	-23.92700005	0	0	0	0	0	1.0
[RightHandThumb1]
6	-24.64799881	-15.72700024	26.82600021	11.96809864	12.42614174	-9.382359505	1.0
7	-24.64799881	-15.72700024	26.82600021	11.10471535	13.59768581	-9.348511696	1.0
8	-24.64799881	-15.72700024	26.82600021	13.22435856	10.68775463	-9.464304924	1.0
[RightHandThumb2]
6	-32.29800034	-18.64699936	18.64699936	-6.902583122	-13.30678558	5.802885532	1.0
7	-32.29800034	-18.64699936	18.64699936	-7.662725449	-10.61651039	6.012784481	1.0
8	-32.29800034	-18.64699936	18.64699936	-5.743042469	-17.27375221	5.419653893	1.0
[RightHandThumb3]
6	-26.52600098	-15.31399918	15.31399918	0.005822491832	-0.7159486413	2.566808701	1.0
7	-26.52600098	-15.31399918	15.31399918	-0.2306863666	0.351459533	2.78508687	1.0
8	-26.52600098	-15.31399918	15.31399918	0.3627522588	-2.290447712	2.236236572	1.0
[RightHandThumb4]
6	-19.54599953	-11.28499985	11.28499985	0	0	0	1.0
7	-19.54599953	-11.28499985	11.28499985	0	0	0	1.0
8	-19.54599953	-11.28499985	11.28499985	0	0	0	1.0
[LeftUpLeg]
6	82.07800293	-67.51699829	-15.99599934	-56.15169144	4.505611897	1.830027938	1.0
7	82.07800293	-67.51699829	-15.99599934	-72.44638062	-2.038264513	-0.8235802054	1.0
8	82.07800293	-67.51699829	-15.99599934	-85.52816772	-7.260923862	-1.810086608	1.0
[LeftLeg]
6	0	-443.7049866	2.845999956	59.12268448	0.7898306847	3.353013992	1.0
7	0	-443.7049866	2.845999956	72.89647675	0.7950023413	7.201180458	1.0
8	0	-443.7049866	2.845999956	82.44132233	-0.2342255414	9.989661217	1.0
[LeftFoot]
6	0	-444.2789917	-29.8219986	-14.28874969	2.357795954	-8.331140518	1.0
7	0	-444.2789917	-29.8219986	-21.88648033	2.087568283	-8.364534378	1.0
8	0	-444.2789917	-29.8219986	-24.08944702	2.372584343	-8.530707359	1.0
[LeftToeBase]
6	0	-87.28699493	107.1060028	-4.626490593	0.00814747531	0.104670085	1.0
7	0	-87.28699493	107.1060028	-2.690867186	2.193723731e-06	1.262763249e-06	1.0
8	0	-87.28699493	107.1060028	-3.35909915	6.326574294e-06	1.644572876e-06	1.0
[RightUpLeg]
6	-82.07800293	-67.51699829	-15.99599934	-50.14456558	-0.7339761853	0.5147415996	1.0
7	-82.07800293	-67.51699829	-15.99599934	-67.97537231	-4.302278996	-3.697697401	1.0
8	-82.07800293	-67.51699829	-15.99599934	-81.29105377	-6.442884445	-6.904528618	1.0
[RightLeg]
6	0	-443.7049866	2.861999989	63.40190125	-4.731662273	-2.714205742	1.0
7	0	-443.7049866	2.861999989	81.02519989	-4.046917915	-3.704298735	1.0
8	0	-443.7049866	2.861999989	92.44669342	-2.549270153	-4.45697546	1.0
[RightFoot]
6	0	-444.2770081	-29.83799934	-24.18894005	-5.011114597	0.01494477317	1.0
7	0	-444.2770081	-29.83799934	-28.62397385	-4.244213104	1.562570333	1.0
8	0	-444.2770081	-29.83799934	-31.3632679	-4.661167145	2.37675786	1.0
[RightToeBase]
6	0	-87.28699493	107.1060028	-7.080425739	2.889019015e-07	7.240856803e-07	1.0
7	0	-87.28699493	107.1060028	-8.860179901	1.973004828e-06	4.774094009e-07	1.0
8	0	-87.28699493	107.1060028	-9.415899277	3.182216915e-06	-3.875612492e-06	1.0
[EndOfFile]
